<?xml version="1.0" encoding="UTF-8"?>
<svg version="1.1" xmlns="http://www.w3.org/2000/svg" width="500" height="500">
<path d="M0 0 C5.08942973 0.36825187 7.82127655 3.16460208 11.3125 6.5625 C11.86228516 7.08263672 12.41207031 7.60277344 12.97851562 8.13867188 C14.32730346 9.41708817 15.66480436 10.70739433 17 12 C15.37159701 15.40219909 13.51714616 18.16821057 11 21 C10.34 21 9.68 21 9 21 C9 21.66 9 22.32 9 23 C8.34 23 7.68 23 7 23 C6.64228516 23.85464844 6.64228516 23.85464844 6.27734375 24.7265625 C4.73501406 27.47162634 2.85886719 29.22569081 0.5625 31.375 C-5.3109327 37.11644545 -8.09319818 42.54403814 -8.25 50.75 C-8.05288894 61.12107427 -3.32646504 66.86816591 4 74 C4.66 74.33 5.32 74.66 6 75 C6 75.66 6 76.32 6 77 C6.72703125 77.2578125 7.4540625 77.515625 8.203125 77.78125 C11.1239717 79.05402119 13.23835317 80.54827444 15.75 82.5 C20.51636417 86.04736169 25.42748257 89.13882976 30.5625 92.125 C31.29170654 92.54910156 32.02091309 92.97320312 32.7722168 93.41015625 C35.94710414 95.24871994 39.12938703 97.07415342 42.3125 98.8984375 C43.22 99.42695313 44.1275 99.95546875 45.0625 100.5 C45.83722656 100.9434375 46.61195313 101.386875 47.41015625 101.84375 C47.93480469 102.2253125 48.45945312 102.606875 49 103 C49 103.66 49 104.32 49 105 C49.71542969 105.2578125 50.43085938 105.515625 51.16796875 105.78125 C54.17160111 107.07384765 56.63505372 108.6277709 59.3125 110.5 C60.19550781 111.1084375 61.07851563 111.716875 61.98828125 112.34375 C62.65214844 112.8903125 63.31601562 113.436875 64 114 C64 114.66 64 115.32 64 116 C64.66 116 65.32 116 66 116 C66 116.66 66 117.32 66 118 C66.58136719 118.25265625 67.16273438 118.5053125 67.76171875 118.765625 C76.55102244 123.61278026 81.30028411 134.12068187 85 143 C87.23093359 151.41788314 87.08287279 160.78802209 83.375 168.71875 C78.39753037 176.97682461 71.27960121 181.61381683 62 184 C48.8765587 185.50977643 37.9280431 182.19689695 27 175 C23.48222929 172.17652614 20.23231255 169.14299131 17 166 C16.40832031 165.47019531 15.81664062 164.94039062 15.20703125 164.39453125 C9.39701554 159.02613194 5.00996208 152.42540453 0.44042969 146.01367188 C-1.00386441 143.99459769 -2.46450466 141.98832902 -3.9296875 139.984375 C-4.84928611 138.71898814 -5.76856942 137.45337207 -6.6875 136.1875 C-7.12167236 135.59509521 -7.55584473 135.00269043 -8.00317383 134.39233398 C-11 130.2283422 -11 130.2283422 -11 128 C-11.66 128 -12.32 128 -13 128 C-14.40268922 126.30508386 -15.72390346 124.542165 -17 122.75 C-17.70125 121.77546875 -18.4025 120.8009375 -19.125 119.796875 C-20.62191333 117.56397928 -21.88577861 115.43735928 -23 113 C-23.66 113 -24.32 113 -25 113 C-27.125 111.125 -27.125 111.125 -29 109 C-29 108.34 -29 107.68 -29 107 C-29.66 107 -30.32 107 -31 107 C-31 106.34 -31 105.68 -31 105 C-31.54269531 104.73445313 -32.08539063 104.46890625 -32.64453125 104.1953125 C-34.34839114 103.33066718 -36.03114007 102.42399411 -37.69921875 101.4921875 C-45.13458602 97.46834168 -50.16681029 95.56283732 -58.42578125 97.59765625 C-67.42918137 100.60812441 -73.40284773 107.2989422 -79.82421875 113.95703125 C-80.49300049 114.64369873 -81.16178223 115.33036621 -81.85083008 116.0378418 C-83.18770219 117.4163148 -84.51211708 118.80699235 -85.82299805 120.21020508 C-86.43570557 120.84466553 -87.04841309 121.47912598 -87.6796875 122.1328125 C-88.22351074 122.70918457 -88.76733398 123.28555664 -89.32763672 123.87939453 C-91 125 -91 125 -93.03271484 124.79736328 C-96.00898473 123.5910469 -98.24773049 121.7491677 -100.75 119.75 C-101.73484375 118.98171875 -102.7196875 118.2134375 -103.734375 117.421875 C-106 115 -106 115 -106.69921875 112.58984375 C-105.64271704 108.67665587 -102.95709214 106.47053069 -100.0625 103.8125 C-96.04155051 100.2900757 -96.04155051 100.2900757 -93 96 C-92.34 96 -91.68 96 -91 96 C-90.77417236 95.44820068 -90.54834473 94.89640137 -90.31567383 94.32788086 C-88.60228171 91.29629916 -86.42571825 89.20225141 -83.94921875 86.75390625 C-83.45339798 86.26091537 -82.95757721 85.7679245 -82.44673157 85.25999451 C-80.86497269 83.68938604 -79.27641315 82.12586714 -77.6875 80.5625 C-76.63039807 79.51543948 -75.57375264 78.46791787 -74.51757812 77.41992188 C-72.56359322 75.48221204 -70.60653087 73.54781937 -68.6472168 71.61547852 C-67.77363525 70.75237061 -66.90005371 69.8892627 -66 69 C-65.09741455 68.11175537 -64.1948291 67.22351074 -63.26489258 66.30834961 C-60.98355883 64.09481974 -60.98355883 64.09481974 -59.3125 61.6875 C-58.879375 61.130625 -58.44625 60.57375 -58 60 C-57.34 60 -56.68 60 -56 60 C-56 59.34 -56 58.68 -56 58 C-55.34 58 -54.68 58 -54 58 C-54 57.34 -54 56.68 -54 56 C-53.34 56 -52.68 56 -52 56 C-52 55.34 -52 54.68 -52 54 C-51.34 54 -50.68 54 -50 54 C-49.79503906 53.46632813 -49.59007812 52.93265625 -49.37890625 52.3828125 C-47.42167354 49.00062566 -44.7403035 46.56962512 -41.9375 43.875 C-37.9955106 40.30446634 -37.9955106 40.30446634 -35 36 C-34.34 36 -33.68 36 -33 36 C-33 35.34 -33 34.68 -33 34 C-32.34 34 -31.68 34 -31 34 C-31 33.34 -31 32.68 -31 32 C-30.34 32 -29.68 32 -29 32 C-29 31.34 -29 30.68 -29 30 C-28.34 30 -27.68 30 -27 30 C-27 29.34 -27 28.68 -27 28 C-26.34 28 -25.68 28 -25 28 C-24.63177124 27.14172607 -24.63177124 27.14172607 -24.25610352 26.26611328 C-22.78731217 23.6162938 -21.06863952 21.85900717 -18.90234375 19.7421875 C-18.10119141 18.95199219 -17.30003906 18.16179687 -16.47460938 17.34765625 C-15.63736328 16.53167969 -14.80011719 15.71570313 -13.9375 14.875 C-12.27777378 13.24961294 -10.62011253 11.62211373 -8.96484375 9.9921875 C-8.2287085 9.27401855 -7.49257324 8.55584961 -6.73413086 7.81591797 C-4.92976993 6.10478455 -4.92976993 6.10478455 -4 4 C-3.34 4 -2.68 4 -2 4 C-2 3.34 -2 2.68 -2 2 C-1.34 2 -0.68 2 0 2 C0 1.34 0 0.68 0 0 Z M38 139 C35.14287465 144.04758812 34.51433053 147.37567987 36 153 C37.2910871 155.4212319 37.2910871 155.4212319 39 157 C39.66 157 40.32 157 41 157 C41 157.66 41 158.32 41 159 C45.10040032 161.05020016 47.57818173 161.17313546 52 160 C55.75816487 158.59989936 57.567755 157.61955116 59.875 154.3125 C61.21854888 150.35649497 61.75661892 147.12850761 61 143 C58.98497111 139.24787724 57.54533858 137.36355905 54 135 C47.82060181 134.17735566 42.20919652 133.87004175 38 139 Z " fill="#49237A" transform="translate(285,242)"/>
<path d="M0 0 C-4.36230466 2.79845959 -8.7411614 5.43169834 -13.3125 7.875 C-19.83568122 11.39097651 -26.33586843 15.1457656 -32.19140625 19.70703125 C-34 21 -34 21 -36 21 C-36 21.66 -36 22.32 -36 23 C-38.046875 24.875 -38.046875 24.875 -40.75 27 C-41.63171875 27.70125 -42.5134375 28.4025 -43.421875 29.125 C-45.57798064 30.69307683 -47.57748621 31.91326484 -50 33 C-50 33.66 -50 34.32 -50 35 C-50.66 35 -51.32 35 -52 35 C-52 35.66 -52 36.32 -52 37 C-52.66 37 -53.32 37 -54 37 C-54.26039063 37.58523437 -54.52078125 38.17046875 -54.7890625 38.7734375 C-56.07962825 41.14641323 -57.49194138 42.69426901 -59.375 44.625 C-70.02119329 56.4325962 -77.99638188 70.34270252 -84 85 C-84.28069336 85.68384766 -84.56138672 86.36769531 -84.85058594 87.07226562 C-95.44429819 113.50039583 -98.29426086 143.5113577 -90 171 C-89.79101074 171.71365723 -89.58202148 172.42731445 -89.36669922 173.16259766 C-85.05964436 187.49686336 -78.46819188 201.27882575 -69.1171875 213.01953125 C-68 215 -68 215 -68.2578125 217.13671875 C-69 219 -69 219 -70 221 C-70.66 221 -71.32 221 -72 221 C-72.226875 221.556875 -72.45375 222.11375 -72.6875 222.6875 C-74.37550036 225.66159588 -76.46676517 227.72008865 -79 230 C-79.66 230 -80.32 230 -81 230 C-81.20238281 230.53109375 -81.40476562 231.0621875 -81.61328125 231.609375 C-83.60451648 235.04215236 -86.34462311 237.50902404 -89.1875 240.25 C-93.52070517 244.49737552 -97.71885434 248.77003961 -101.6328125 253.4140625 C-103.02993325 255.03472257 -104.40209286 256.57483958 -106 258 C-106.66 258 -107.32 258 -108 258 C-108.2475 258.639375 -108.495 259.27875 -108.75 259.9375 C-110 262 -110 262 -111.8125 263.0625 C-114 263 -114 263 -116.3671875 260.87890625 C-118.99163705 258.00914464 -121.15956956 255.11047738 -123.3125 251.875 C-124.00988281 250.84117187 -124.70726562 249.80734375 -125.42578125 248.7421875 C-127 246 -127 246 -127 243 C-127.66 243 -128.32 243 -129 243 C-136.8091646 226.77655184 -143.73797577 210.00806306 -146 192 C-146.16435547 190.83017578 -146.16435547 190.83017578 -146.33203125 189.63671875 C-149.65179921 161.17524142 -144.99763582 132.00156525 -133 106 C-132.22826449 104.25039767 -131.45736364 102.50042681 -130.6875 100.75 C-130.12647564 99.49933701 -129.56459762 98.24905395 -129 97 C-128.34 97 -127.68 97 -127 97 C-126.855625 96.401875 -126.71125 95.80375 -126.5625 95.1875 C-126.1127561 93.43849596 -125.57107659 91.71322977 -125 90 C-124.34 90 -123.68 90 -123 90 C-122.87431641 88.95779297 -122.87431641 88.95779297 -122.74609375 87.89453125 C-121.81211479 84.27108409 -120.15295282 81.78348709 -118.0625 78.6875 C-117.35222656 77.61886719 -116.64195312 76.55023438 -115.91015625 75.44921875 C-115.27980469 74.64097656 -114.64945313 73.83273438 -114 73 C-113.34 73 -112.68 73 -112 73 C-111.75636719 72.27425781 -111.51273438 71.54851562 -111.26171875 70.80078125 C-109.84485241 67.65560117 -108.16884189 65.69795719 -105.8125 63.1875 C-102.99313194 60.15263884 -100.2266581 57.10911679 -97.5625 53.9375 C-93.45691674 49.22475302 -88.90586863 44.87447029 -84 41 C-83.34 41 -82.68 41 -82 41 C-82 40.34 -82 39.68 -82 39 C-80.5390625 37.7109375 -80.5390625 37.7109375 -78.625 36.375 C-77.99851562 35.92898437 -77.37203125 35.48296875 -76.7265625 35.0234375 C-75 34 -75 34 -73 34 C-73 33.34 -73 32.68 -73 32 C-70.59768383 30.22825337 -68.20249961 28.59918035 -65.6875 27 C-64.54365845 26.26958496 -64.54365845 26.26958496 -63.37670898 25.52441406 C-46.38835144 14.84512919 -28.69666849 6.79741841 -9.5 1 C-8.41307861 0.66971802 -8.41307861 0.66971802 -7.30419922 0.33276367 C-2.24775555 -1.12387778 -2.24775555 -1.12387778 0 0 Z " fill="#49237A" transform="translate(276,76)"/>
<path d="M0 0 C-1.38366508 3.40210434 -2.58440401 4.6145228 -5.875 6.1875 C-32.10972587 19.9974597 -50.11533541 44.14072228 -59 72 C-60.70135324 78.27472946 -61.42115665 84.3902272 -61.6875 90.875 C-61.72439941 91.75704102 -61.76129883 92.63908203 -61.79931641 93.54785156 C-62.37125213 109.45059774 -58.63157787 122.77146435 -52 137.125 C-51.68023193 137.82318848 -51.36046387 138.52137695 -51.03100586 139.24072266 C-49.39600736 142.6459048 -47.75583592 145.39673235 -45.1875 148.1796875 C-43 151 -43 151 -42.90625 153.58203125 C-44.29014111 156.64141909 -46.0474822 158.40184654 -48.5 160.6875 C-51.67196677 163.5285757 -51.67196677 163.5285757 -54 167 C-54.66 167 -55.32 167 -56 167 C-56 167.66 -56 168.32 -56 169 C-56.66 169 -57.32 169 -58 169 C-58 169.66 -58 170.32 -58 171 C-58.66 171 -59.32 171 -60 171 C-60.26353271 171.59022949 -60.52706543 172.18045898 -60.79858398 172.78857422 C-62.04976701 175.09160527 -63.34804978 176.56361442 -65.22265625 178.3828125 C-65.84333984 178.99253906 -66.46402344 179.60226563 -67.10351562 180.23046875 C-67.74998047 180.85566406 -68.39644531 181.48085937 -69.0625 182.125 C-70.3472393 183.37536074 -71.62989681 184.62786516 -72.91015625 185.8828125 C-73.76299194 186.70869873 -73.76299194 186.70869873 -74.63305664 187.55126953 C-76.10729905 188.97414012 -76.10729905 188.97414012 -77 191 C-77.66 191 -78.32 191 -79 191 C-79.226875 191.5775 -79.45375 192.155 -79.6875 192.75 C-81.33038023 195.5663661 -83.39533227 197.08077114 -86 199 C-92.25849697 196.76980064 -94.8828551 189.45968865 -98 184 C-98.46792969 183.20335937 -98.93585938 182.40671875 -99.41796875 181.5859375 C-112.27810872 158.02982351 -113.85660152 129.74529525 -108 104 C-107.85546387 103.35047363 -107.71092773 102.70094727 -107.56201172 102.03173828 C-103.27666595 83.23411414 -94.12286543 63.44392654 -81 49 C-80.34 49 -79.68 49 -79 49 C-78.773125 48.443125 -78.54625 47.88625 -78.3125 47.3125 C-76.63185754 44.35136804 -74.42758378 42.38965279 -72 40 C-71.15824219 39.10023437 -70.31648438 38.20046875 -69.44921875 37.2734375 C-53.52265964 20.39551955 -24.2043269 0 0 0 Z " fill="#86C6A3" transform="translate(314,74)"/>
<path d="M0 0 C1.65 0.66 3.3 1.32 5 2 C5 2.66 5 3.32 5 4 C6.32 4.66 7.64 5.32 9 6 C8.15233735 10.63596678 5.30762457 12.99266429 2 16.125 C-1.97988997 19.68912684 -1.97988997 19.68912684 -5 24 C-5.66 24 -6.32 24 -7 24 C-7 24.66 -7 25.32 -7 26 C-7.66 26 -8.32 26 -9 26 C-9.34792603 26.83797119 -9.34792603 26.83797119 -9.70288086 27.69287109 C-11.3382241 30.60158436 -13.37103929 32.57769159 -15.75390625 34.9140625 C-16.69041016 35.83960938 -17.62691406 36.76515625 -18.59179688 37.71875 C-19.58168773 38.68785102 -20.57192614 39.65659713 -21.5625 40.625 C-23.50450908 42.53065371 -25.44234188 44.44035631 -27.37890625 46.3515625 C-28.2407251 47.19541504 -29.10254395 48.03926758 -29.99047852 48.90869141 C-32.04204037 50.83637401 -32.04204037 50.83637401 -33 53 C-33.66 53 -34.32 53 -35 53 C-35 53.66 -35 54.32 -35 55 C-35.66 55 -36.32 55 -37 55 C-37 55.66 -37 56.32 -37 57 C-38.375 58.625 -38.375 58.625 -40 60 C-40.66 60 -41.32 60 -42 60 C-42 60.66 -42 61.32 -42 62 C-42.66 62 -43.32 62 -44 62 C-44.36798706 62.85803223 -44.36798706 62.85803223 -44.7434082 63.73339844 C-46.21475473 66.38736797 -47.93552401 68.14499183 -50.10546875 70.265625 C-51.33426758 71.47798828 -51.33426758 71.47798828 -52.58789062 72.71484375 C-53.44576172 73.55144531 -54.30363281 74.38804687 -55.1875 75.25 C-62.03459051 81.91901089 -62.03459051 81.91901089 -68.4765625 88.97265625 C-72.77094065 93.98391394 -77.48931299 98.55835321 -82.1875 103.1875 C-83.95420186 104.92857892 -85.71860727 106.67199183 -87.48046875 108.41796875 C-88.25285889 109.17875732 -89.02524902 109.9395459 -89.82104492 110.72338867 C-92.08455615 113.00902437 -92.08455615 113.00902437 -94.1574707 115.78637695 C-95.06952271 116.88212036 -95.06952271 116.88212036 -96 118 C-96.66 118 -97.32 118 -98 118 C-98 118.66 -98 119.32 -98 120 C-101.09084737 119.65657251 -102.32444569 118.74044345 -104.8125 116.75 C-107 114 -107 114 -106.95507812 111.66870117 C-105.70030091 108.16257393 -103.5446275 106.06234672 -100.90625 103.55078125 C-100.14616638 102.80274483 -100.14616638 102.80274483 -99.37072754 102.03959656 C-97.75636146 100.45414278 -96.1289363 98.88296783 -94.5 97.3125 C-92.87376339 95.72878095 -91.25037138 94.14224553 -89.62927246 92.55326843 C-88.62119553 91.5668793 -87.60965621 90.58401383 -86.59436035 89.60505676 C-83.95421807 87.06609326 -83.95421807 87.06609326 -82 84 C-81.34 84 -80.68 84 -80 84 C-80 83.34 -80 82.68 -80 82 C-79.34 82 -78.68 82 -78 82 C-78 81.34 -78 80.68 -78 80 C-77.34 80 -76.68 80 -76 80 C-75.505 78.515 -75.505 78.515 -75 77 C-74.34 77 -73.68 77 -73 77 C-72.34 75.68 -71.68 74.36 -71 73 C-70.34 73 -69.68 73 -69 73 C-69 72.34 -69 71.68 -69 71 C-68.34 71 -67.68 71 -67 71 C-67 70.34 -67 69.68 -67 69 C-66.34 69 -65.68 69 -65 69 C-64.77272217 68.44602539 -64.54544434 67.89205078 -64.3112793 67.32128906 C-62.61737876 64.32266566 -60.47777093 62.27205539 -58.01953125 59.859375 C-57.52845383 59.37349915 -57.0373764 58.88762329 -56.53141785 58.38702393 C-54.96314352 56.83649697 -53.38836518 55.29280844 -51.8125 53.75 C-49.75305438 51.72743902 -47.69688951 49.70162765 -45.64453125 47.671875 C-45.14536194 47.17829498 -44.64619263 46.68471497 -44.13189697 46.17617798 C-40.82542285 42.88327361 -37.72689906 39.47444945 -34.70092773 35.92578125 C-31.36259807 32.14614233 -27.72009826 28.65811381 -24.125 25.125 C-22.60449184 23.62991839 -21.08614589 22.13263356 -19.5703125 20.6328125 C-18.57668701 19.65658936 -18.57668701 19.65658936 -17.56298828 18.66064453 C-15.91455548 17.06857485 -15.91455548 17.06857485 -15 15 C-14.34 15 -13.68 15 -13 15 C-13 14.34 -13 13.68 -13 13 C-12.34 13 -11.68 13 -11 13 C-10.76539063 12.43796875 -10.53078125 11.8759375 -10.2890625 11.296875 C-8.69337 8.45364109 -6.71075457 6.51901873 -4.375 4.25 C-3.55773437 3.45078125 -2.74046875 2.6515625 -1.8984375 1.828125 C-1.27195312 1.22484375 -0.64546875 0.6215625 0 0 Z " fill="#8BC8A7" transform="translate(274,231)"/>
<path d="M0 0 C-5.32419183 3.41551929 -10.7348235 6.52139868 -16.3125 9.50390625 C-19.44118326 11.24560056 -22.40151972 13.17647658 -25.34375 15.21484375 C-27 16 -27 16 -30 15 C-30 14.34 -30 13.68 -30 13 C-32.97 12.505 -32.97 12.505 -36 12 C-36.33 12.66 -36.66 13.32 -37 14 C-38 15 -38 15 -40.5625 15.0625 C-41.366875 15.041875 -42.17125 15.02125 -43 15 C-35.98340577 9.25452791 -8.79591881 -4.3979594 0 0 Z " fill="#624683" transform="translate(276,76)"/>
<path d="M0 0 C5.08942973 0.36825187 7.82127655 3.16460208 11.3125 6.5625 C12.13717773 7.34270508 12.13717773 7.34270508 12.97851562 8.13867188 C14.32730346 9.41708817 15.66480436 10.70739433 17 12 C15.27845212 15.76488042 13.00765886 18.15063897 10 21 C9.34 18.69 8.68 16.38 8 14 C8 14.33 8 14.66 8 15 C6.1875 15.6875 6.1875 15.6875 4 16 C2.1875 14.9375 2.1875 14.9375 1 13 C1.28674418 10.99279077 1.61866701 8.9914056 2 7 C1.34 6.34 0.68 5.68 0 5 C-2.10820797 5.3185177 -2.10820797 5.3185177 -4 6 C-4 5.34 -4 4.68 -4 4 C-3.34 4 -2.68 4 -2 4 C-2 3.34 -2 2.68 -2 2 C-1.34 2 -0.68 2 0 2 C0 1.34 0 0.68 0 0 Z M1 1 C1.33 1.99 1.66 2.98 2 4 C2.33 3.01 2.66 2.02 3 1 C2.34 1 1.68 1 1 1 Z " fill="#4B2879" transform="translate(285,242)"/>
<path d="M0 0 C0.45375 0.474375 0.9075 0.94875 1.375 1.4375 C3.22977487 3.22093737 4.50135592 3.5691993 7 4 C5.7934375 5.11375 5.7934375 5.11375 4.5625 6.25 C2.07466712 8.91986944 1.66757654 9.66211729 1 13 C-0.3125 14.8125 -0.3125 14.8125 -2 16 C-3.33333333 15.66666667 -4.66666667 15.33333333 -6 15 C-7.77190909 16.35444301 -7.77190909 16.35444301 -9 18 C-8.979375 16.9275 -8.95875 15.855 -8.9375 14.75 C-8.7770472 11.21217589 -8.7770472 11.21217589 -9.8125 8.9375 C-10 7 -10 7 -7.75 3.8125 C-5.06876739 1.07033029 -3.83187476 0 0 0 Z " fill="#87C7A3" transform="translate(243,267)"/>
<path d="M0 0 C0.66 0.33 1.32 0.66 2 1 C1.773125 1.5775 1.54625 2.155 1.3125 2.75 C0.73494807 5.12172477 0.73494807 5.12172477 2.4375 7.25 C2.953125 7.8275 3.46875 8.405 4 9 C5.65 8.67 7.3 8.34 9 8 C4.84542161 13.91712679 0.22741666 19.01139933 -5 24 C-5.66 22.68 -6.32 21.36 -7 20 C-5.68 20 -4.36 20 -3 20 C-3.20625 19.21625 -3.4125 18.4325 -3.625 17.625 C-3.74875 16.75875 -3.8725 15.8925 -4 15 C-3.34 14.34 -2.68 13.68 -2 13 C-3.32 12.34 -4.64 11.68 -6 11 C-6.4125 11.474375 -6.825 11.94875 -7.25 12.4375 C-9.182185 14.16266518 -10.48192275 14.56584875 -13 15 C-13 14.34 -13 13.68 -13 13 C-12.34 13 -11.68 13 -11 13 C-11 12.34 -11 11.68 -11 11 C-10.34 11 -9.68 11 -9 11 C-9 10.34 -9 9.68 -9 9 C-8.34 9 -7.68 9 -7 9 C-6.67 8.01 -6.34 7.02 -6 6 C-5.34 6 -4.68 6 -4 6 C-3.34 4.68 -2.68 3.36 -2 2 C-1.34 2 -0.68 2 0 2 C0 1.34 0 0.68 0 0 Z " fill="#9ACCB0" transform="translate(205,302)"/>
<path d="M0 0 C-1.38366508 3.40210434 -2.58440401 4.6145228 -5.875 6.1875 C-11.1456226 8.92548577 -15.70789711 12.40594158 -20.3984375 16.01171875 C-22.21958057 17.40355332 -24.09284969 18.72856646 -26 20 C-26.33 18.68 -26.66 17.36 -27 16 C-24.69 15.34 -22.38 14.68 -20 14 C-19.66781808 10.99740483 -19.66781808 10.99740483 -21.5 9.3125 C-22.2425 8.6628125 -22.2425 8.6628125 -23 8 C-17.78071552 2.78071552 -7.2522215 0 0 0 Z " fill="#ABD1BA" transform="translate(314,74)"/>
<path d="M0 0 C0.33 0.66 0.66 1.32 1 2 C1.66 2.33 2.32 2.66 3 3 C2.34 3 1.68 3 1 3 C1.33 3.99 1.66 4.98 2 6 C1.67 6.99 1.34 7.98 1 9 C2.32 9.33 3.64 9.66 5 10 C5.99 8.02 6.98 6.04 8 4 C9.32 4.66 10.64 5.32 12 6 C6.03225806 13.25806452 6.03225806 13.25806452 4 15 C3.34 15 2.68 15 2 15 C2 15.66 2 16.32 2 17 C-1.09084737 16.65657251 -2.32444569 15.74044345 -4.8125 13.75 C-7 11 -7 11 -7.1875 8.5625 C-5.47377346 4.86445851 -3.00278515 2.74722897 0 0 Z " fill="#8FC8A7" transform="translate(174,334)"/>
<path d="M0 0 C2.475 0.99 2.475 0.99 5 2 C4.67 2.5775 4.34 3.155 4 3.75 C2.72924102 6.19883862 2.72924102 6.19883862 3 10 C1.865625 10.12375 0.73125 10.2475 -0.4375 10.375 C-2.2009375 10.684375 -2.2009375 10.684375 -4 11 C-4.33 11.66 -4.66 12.32 -5 13 C-7 11 -7 11 -8 9 C-7.1198713 5.56749809 -6.39916572 4.27260098 -3.4375 2.25 C-2.2309375 1.63125 -2.2309375 1.63125 -1 1 C-0.67 0.67 -0.34 0.34 0 0 Z " fill="#7EC69F" transform="translate(199,312)"/>
<path d="M0 0 C0.33 0.66 0.66 1.32 1 2 C1.66 2.33 2.32 2.66 3 3 C2.67 5.64 2.34 8.28 2 11 C0.824375 11.185625 0.824375 11.185625 -0.375 11.375 C-3.14057822 11.79117993 -3.14057822 11.79117993 -5 14 C-6.27596055 11.58985229 -7.3236604 9.60796551 -8 7 C-6.73634801 3.44597877 -5.6984581 2.34110745 -2.3125 0.6875 C-1.549375 0.460625 -0.78625 0.23375 0 0 Z " fill="#81C59F" transform="translate(213,299)"/>
<path d="M0 0 C2.73244993 0.28762631 4.53491296 0.65118472 6.75 2.3125 C8.14744246 4.19904732 8.6037919 5.70199304 9 8 C6.525 7.01 6.525 7.01 4 6 C2.04783565 7.95216435 1.15173355 9.53199953 0 12 C-1.32 11.67 -2.64 11.34 -4 11 C-3.5247412 9.35303396 -3.04468109 7.70745272 -2.5625 6.0625 C-2.29566406 5.14597656 -2.02882812 4.22945313 -1.75390625 3.28515625 C-1 1 -1 1 0 0 Z " fill="#7FC7A2" transform="translate(221,286)"/>
<path d="M0 0 C0.66 1.32 1.32 2.64 2 4 C1.01 4.495 1.01 4.495 0 5 C-0.66 4.67 -1.32 4.34 -2 4 C-1.67 4.99 -1.34 5.98 -1 7 C-1.99 7.495 -1.99 7.495 -3 8 C-3.33 8.66 -3.66 9.32 -4 10 C-4.99 9.67 -5.98 9.34 -7 9 C-7.14308594 10.10408203 -7.14308594 10.10408203 -7.2890625 11.23046875 C-8.09982775 14.38888942 -9.21755001 15.89560982 -11.375 18.3125 C-11.98085937 19.00988281 -12.58671875 19.70726562 -13.2109375 20.42578125 C-15 22 -15 22 -18 22 C-14.23424455 13.49218214 -6.69925257 6.31151448 0 0 Z " fill="#644785" transform="translate(184,124)"/>
<path d="M0 0 C1.98 1.65 3.96 3.3 6 5 C4.44499019 8.81684226 1.96404505 11.19195732 -1 14 C-1.309375 12.906875 -1.61875 11.81375 -1.9375 10.6875 C-2.58337897 8.44592006 -3.2623117 6.2130649 -4 4 C-3.01 4 -2.02 4 -1 4 C-0.67 2.68 -0.34 1.36 0 0 Z " fill="#5D3E83" transform="translate(296,249)"/>
<path d="M0 0 C1.134375 0.020625 2.26875 0.04125 3.4375 0.0625 C3.4375 1.7125 3.4375 3.3625 3.4375 5.0625 C2.1175 4.7325 0.7975 4.4025 -0.5625 4.0625 C-0.5625 4.7225 -0.5625 5.3825 -0.5625 6.0625 C-1.160625 6.18625 -1.75875 6.31 -2.375 6.4375 C-4.82481348 7.01725985 -4.82481348 7.01725985 -7.5625 9.0625 C-8.2225 8.0725 -8.8825 7.0825 -9.5625 6.0625 C-10.5525 6.0625 -11.5425 6.0625 -12.5625 6.0625 C-11.9025 5.0725 -11.2425 4.0825 -10.5625 3.0625 C-7.9375 2.875 -7.9375 2.875 -5.5625 3.0625 C-5.2325 2.4025 -4.9025 1.7425 -4.5625 1.0625 C-3.5625 0.0625 -3.5625 0.0625 0 0 Z " fill="#462178" transform="translate(243.5625,87.9375)"/>
<path d="M0 0 C0.66 0 1.32 0 2 0 C1.98839844 1.20914063 1.97679687 2.41828125 1.96484375 3.6640625 C1.90775069 12.65253611 2.03684005 21.46191021 2.9765625 30.41015625 C2.98429688 31.26480469 2.99203125 32.11945313 3 33 C2.34 33.66 1.68 34.32 1 35 C-2.00567839 23.44925247 -0.75741004 11.77727702 0 0 Z " fill="#9FCAAF" transform="translate(250,156)"/>
<path d="M0 0 C0.66 1.32 1.32 2.64 2 4 C0.68 4 -0.64 4 -2 4 C-1.835 4.886875 -1.67 5.77375 -1.5 6.6875 C-2 10 -2 10 -3.640625 11.4765625 C-7.01715259 13.61502997 -10.06984011 15.17679083 -14 16 C-14 15.34 -14 14.68 -14 14 C-13.34 14 -12.68 14 -12 14 C-12 13.34 -12 12.68 -12 12 C-11.34 12 -10.68 12 -10 12 C-10 11.34 -10 10.68 -10 10 C-9.34 10 -8.68 10 -8 10 C-8 9.34 -8 8.68 -8 8 C-7.34 8 -6.68 8 -6 8 C-6 7.34 -6 6.68 -6 6 C-5.34 6 -4.68 6 -4 6 C-3.566875 5.071875 -3.566875 5.071875 -3.125 4.125 C-2 2 -2 2 0 0 Z " fill="#70528D" transform="translate(264,264)"/>
<path d="M0 0 C-0.36984687 6.16411455 -1.70238643 8.80005946 -6 13 C-8.8125 14.375 -8.8125 14.375 -11 15 C-9.68552225 11.43574301 -8.11594205 8.40275366 -6 5.25 C-5.2265625 4.08210937 -5.2265625 4.08210937 -4.4375 2.890625 C-2.23966942 0 -2.23966942 0 0 0 Z " fill="#543278" transform="translate(164,150)"/>
<path d="M0 0 C2.29755922 3.44633882 2.23643976 4.71068391 2.1953125 8.76171875 C2.18886719 9.87998047 2.18242187 10.99824219 2.17578125 12.15039062 C2.15902344 13.31763672 2.14226562 14.48488281 2.125 15.6875 C2.11597656 16.86634766 2.10695312 18.04519531 2.09765625 19.25976562 C2.07406423 22.17338026 2.0411454 25.08658892 2 28 C1.34 28.33 0.68 28.66 0 29 C-0.19925938 25.66726265 -0.38223367 22.33381434 -0.5625 19 C-0.61857422 18.06542969 -0.67464844 17.13085938 -0.73242188 16.16796875 C-1.02366812 10.61487364 -0.87461303 5.49386553 0 0 Z " fill="#451D70" transform="translate(131,227)"/>
<path d="M0 0 C1.65 0.33 3.3 0.66 5 1 C5 1.66 5 2.32 5 3 C5.66 3.33 6.32 3.66 7 4 C6.34 6.31 5.68 8.62 5 11 C3.35 10.67 1.7 10.34 0 10 C0 6.66666667 0 3.33333333 0 0 Z " fill="#85C6A3" transform="translate(175,334)"/>
<path d="M0 0 C0.94875 0.04125 1.8975 0.0825 2.875 0.125 C3.205 0.785 3.535 1.445 3.875 2.125 C3.215 2.125 2.555 2.125 1.875 2.125 C1.71 2.99125 1.545 3.8575 1.375 4.75 C-0.69272888 9.40238998 -3.95175687 11.38812893 -8.125 14.125 C-8.455 12.805 -8.785 11.485 -9.125 10.125 C-6.815 9.465 -4.505 8.805 -2.125 8.125 C-1.79281808 5.12240483 -1.79281808 5.12240483 -3.625 3.4375 C-4.12 3.004375 -4.615 2.57125 -5.125 2.125 C-3.125 0.125 -3.125 0.125 0 0 Z " fill="#91C7A8" transform="translate(296.125,79.875)"/>
<path d="M0 0 C0.66 0.99 1.32 1.98 2 3 C0.41332422 6.90285767 -2.13350481 9.33520982 -5.125 12.25 C-6.03507813 13.14203125 -6.94515625 14.0340625 -7.8828125 14.953125 C-8.58148438 15.62859375 -9.28015625 16.3040625 -10 17 C-10.66 15.68 -11.32 14.36 -12 13 C-10.35 12.67 -8.7 12.34 -7 12 C-7.33 10.68 -7.66 9.36 -8 8 C-6.35 7.34 -4.7 6.68 -3 6 C-3 5.34 -3 4.68 -3 4 C-2.34 4 -1.68 4 -1 4 C-0.67 2.68 -0.34 1.36 0 0 Z " fill="#684A88" transform="translate(193,303)"/>
<path d="M0 0 C1.485 0.99 1.485 0.99 3 2 C3 2.66 3 3.32 3 4 C3.66 4 4.32 4 5 4 C5 4.66 5 5.32 5 6 C6.65 6.33 8.3 6.66 10 7 C8.68 8.32 7.36 9.64 6 11 C3.0625 10.1875 3.0625 10.1875 0 9 C-1.15941038 5.52176885 -0.70820884 3.54104422 0 0 Z " fill="#4E2E76" transform="translate(321,395)"/>
<path d="M0 0 C0.66 0 1.32 0 2 0 C2.144375 0.804375 2.28875 1.60875 2.4375 2.4375 C2.74135249 4.92103706 2.74135249 4.92103706 4 6 C4.66 6.33 5.32 6.66 6 7 C6 8.32 6 9.64 6 11 C5.401875 10.773125 4.80375 10.54625 4.1875 10.3125 C3.465625 10.209375 2.74375 10.10625 2 10 C0.22809091 11.35444301 0.22809091 11.35444301 -1 13 C-0.979375 11.9275 -0.95875 10.855 -0.9375 9.75 C-0.84356237 6.20424619 -0.84356237 6.20424619 -1.625 3.6875 C-1.74875 3.130625 -1.8725 2.57375 -2 2 C-1.34 1.34 -0.68 0.68 0 0 Z " fill="#80C29E" transform="translate(235,272)"/>
<path d="M0 0 C9.85125432 1.10946165 9.85125432 1.10946165 13.125 5 C15 8 15 8 15 10 C9.66666667 7.33333333 4.33333333 4.66666667 -1 2 C-0.67 1.34 -0.34 0.68 0 0 Z " fill="#695187" transform="translate(239,337)"/>
<path d="M0 0 C0.70125 0.721875 1.4025 1.44375 2.125 2.1875 C4.92770745 4.99823813 7.92262792 7.49516226 11 10 C10.67 10.99 10.34 11.98 10 13 C7.0625 11.6875 7.0625 11.6875 4 10 C3.67 9.01 3.34 8.02 3 7 C2.484375 6.525625 1.96875 6.05125 1.4375 5.5625 C0 4 0 4 0 0 Z M3 11 C3.99 11.495 3.99 11.495 5 12 C4.01 12.495 4.01 12.495 3 13 C3 12.34 3 11.68 3 11 Z " fill="#5C417F" transform="translate(280,307)"/>
<path d="M0 0 C1.77692521 3.51917872 3.49552234 7.06421091 5.1875 10.625 C5.73792969 11.77226562 6.28835937 12.91953125 6.85546875 14.1015625 C7.23316406 15.05804688 7.61085937 16.01453125 8 17 C7.67 17.66 7.34 18.32 7 19 C4 17 4 17 3 16 C2.95936168 14.33382885 2.957279 12.66611905 3 11 C2.34 11 1.68 11 1 11 C-0.17571451 7.32589215 -0.07366746 3.83070817 0 0 Z " fill="#6E538A" transform="translate(188,255)"/>
<path d="M0 0 C1.32 0.33 2.64 0.66 4 1 C3.01 2.485 3.01 2.485 2 4 C1.34 4 0.68 4 0 4 C-0.2475 4.639375 -0.495 5.27875 -0.75 5.9375 C-2 8 -2 8 -3.9375 8.9375 C-6 9 -6 9 -7.75 7.5625 C-8.1625 7.046875 -8.575 6.53125 -9 6 C-6.50907189 4.75453595 -5.58919267 5.2232422 -3 6 C-3 5.01 -3 4.02 -3 3 C-2.34 3 -1.68 3 -1 3 C-0.67 2.01 -0.34 1.02 0 0 Z " fill="#705889" transform="translate(168,330)"/>
<path d="M0 0 C0.66 0.33 1.32 0.66 2 1 C1 4 1 4 -1 5 C-1.433125 6.2375 -1.433125 6.2375 -1.875 7.5 C-3 10 -3 10 -5.125 10.8125 C-5.74375 10.874375 -6.3625 10.93625 -7 11 C-7 11.66 -7 12.32 -7 13 C-7.99 12.67 -8.98 12.34 -10 12 C-8.66415278 7.99245833 -6.23106172 6.62523764 -3 4 C-2.67 3.34 -2.34 2.68 -2 2 C-1.34 2 -0.68 2 0 2 C0 1.34 0 0.68 0 0 Z " fill="#644B85" transform="translate(229,300)"/>
<path d="M0 0 C3.24208567 0.35049575 4.61527704 0.56221181 6.8125 3.0625 C7.204375 3.701875 7.59625 4.34125 8 5 C6.68 5.99 5.36 6.98 4 8 C4 7.34 4 6.68 4 6 C3.01 6.33 2.02 6.66 1 7 C0.67 6.34 0.34 5.68 0 5 C-1.32 5.33 -2.64 5.66 -4 6 C-4 5.34 -4 4.68 -4 4 C-3.34 4 -2.68 4 -2 4 C-2 3.34 -2 2.68 -2 2 C-1.34 2 -0.68 2 0 2 C0 1.34 0 0.68 0 0 Z M1 1 C1.33 1.99 1.66 2.98 2 4 C2.33 3.01 2.66 2.02 3 1 C2.34 1 1.68 1 1 1 Z " fill="#6E548F" transform="translate(285,242)"/>
<path d="M0 0 C1.32 0.66 2.64 1.32 4 2 C3.82374165 4.37948772 3.30280227 5.70225849 1.59765625 7.37890625 C0.09350908 8.62115486 -1.45129851 9.81376056 -3 11 C-3.6875 9.1875 -3.6875 9.1875 -4 7 C-2.5625 5.4375 -2.5625 5.4375 -1 4 C-1 3.01 -1 2.02 -1 1 C-0.67 0.67 -0.34 0.34 0 0 Z " fill="#9AC7AE" transform="translate(279,235)"/>
<path d="M0 0 C1 3 1 3 0.4375 5.5625 C-1 8 -1 8 -4 9.375 C-7 10 -7 10 -9 9 C-6.03 6.03 -3.06 3.06 0 0 Z " fill="#705492" transform="translate(209,321)"/>
<path d="M0 0 C2 2 2 2 2 6 C2.66 6 3.32 6 4 6 C3.67 7.32 3.34 8.64 3 10 C0.69 9.34 -1.62 8.68 -4 8 C-1.39130435 1.39130435 -1.39130435 1.39130435 0 0 Z " fill="#81C4A0" transform="translate(264,246)"/>
<path d="M0 0 C0.99 0 1.98 0 3 0 C1.54718935 5.32697239 -2.08111378 8.36402802 -6 12 C-6.6171875 10.1328125 -6.6171875 10.1328125 -7 8 C-5.125 5.875 -5.125 5.875 -3 4 C-2.67 3.34 -2.34 2.68 -2 2 C-1.34 2 -0.68 2 0 2 C0 1.34 0 0.68 0 0 Z " fill="#674C82" transform="translate(365,409)"/>
<path d="M0 0 C0 2.83967231 -0.40267181 5.23735711 -1 8 C-0.34 8.33 0.32 8.66 1 9 C0.67 9.99 0.34 10.98 0 12 C-1.32 11.34 -2.64 10.68 -4 10 C-3.67 9.67 -3.34 9.34 -3 9 C-4.32 8.34 -5.64 7.68 -7 7 C-4.69 4.69 -2.38 2.38 0 0 Z " fill="#99CFB2" transform="translate(182,326)"/>
<path d="M0 0 C0.99 0.33 1.98 0.66 3 1 C2.01 2.485 2.01 2.485 1 4 C0.34 4 -0.32 4 -1 4 C-1 4.66 -1 5.32 -1 6 C-1.66 6 -2.32 6 -3 6 C-3 6.66 -3 7.32 -3 8 C-3.66 8 -4.32 8 -5 8 C-5.268125 8.61875 -5.53625 9.2375 -5.8125 9.875 C-7 12 -7 12 -10 14 C-9.6875 12.0625 -9.6875 12.0625 -9 10 C-8.01 9.67 -7.02 9.34 -6 9 C-6 7.68 -6 6.36 -6 5 C-4.68 5 -3.36 5 -2 5 C-1.855625 4.360625 -1.71125 3.72125 -1.5625 3.0625 C-1 1 -1 1 0 0 Z " fill="#AACFB9" transform="translate(259,237)"/>
<path d="M0 0 C0.33 0.66 0.66 1.32 1 2 C1.66 2.33 2.32 2.66 3 3 C0.69 4.65 -1.62 6.3 -4 8 C-3.67 9.98 -3.34 11.96 -3 14 C-4.32 13.01 -5.64 12.02 -7 11 C-6.68232368 5.59950264 -3.80003673 3.47662935 0 0 Z " fill="#A2D0B6" transform="translate(174,334)"/>
<path d="M0 0 C1.37562854 1.28965176 2.70766393 2.62689293 4 4 C4 4.66 4 5.32 4 6 C4.66 6 5.32 6 6 6 C6 6.66 6 7.32 6 8 C6.66 8 7.32 8 8 8 C8.33 9.65 8.66 11.3 9 13 C0.79775281 6.25842697 0.79775281 6.25842697 -1 3 C-0.67 2.01 -0.34 1.02 0 0 Z " fill="#604683" transform="translate(299,400)"/>
<path d="M0 0 C0.94875 0.04125 1.8975 0.0825 2.875 0.125 C1.94225891 1.25394876 1.00359878 2.37800876 0.0625 3.5 C-0.45957031 4.12648438 -0.98164063 4.75296875 -1.51953125 5.3984375 C-3.125 7.125 -3.125 7.125 -6.125 9.125 C-6.455 8.135 -6.785 7.145 -7.125 6.125 C-6.135 5.795 -5.145 5.465 -4.125 5.125 C-4.455 4.135 -4.785 3.145 -5.125 2.125 C-3.125 0.125 -3.125 0.125 0 0 Z " fill="#A5D1B7" transform="translate(196.125,325.875)"/>
<path d="M0 0 C1.32 0.66 2.64 1.32 4 2 C-2 8 -2 8 -4.625 8.125 C-5.40875 8.08375 -6.1925 8.0425 -7 8 C-6.02133662 6.85373678 -5.04205413 5.70800212 -4.0625 4.5625 C-3.51722656 3.92441406 -2.97195312 3.28632813 -2.41015625 2.62890625 C-1.63204305 1.73008851 -0.84063472 0.84063472 0 0 Z " fill="#624286" transform="translate(190,341)"/>
<path d="M0 0 C1 4 1 4 0 7 C-3.0625 8.6875 -3.0625 8.6875 -6 10 C-6.66 9.34 -7.32 8.68 -8 8 C-5.36 5.36 -2.72 2.72 0 0 Z " fill="#A0CFB6" transform="translate(191,317)"/>
<path d="M0 0 C0 1.98 0 3.96 0 6 C-1.32 6.33 -2.64 6.66 -4 7 C-4 7.66 -4 8.32 -4 9 C-5.32 9 -6.64 9 -8 9 C-6.78641212 6.02119338 -3.58154637 0 0 0 Z " fill="#6A4D89" transform="translate(243,287)"/>
<path d="M0 0 C1.32 0.33 2.64 0.66 4 1 C1.03 3.97 -1.94 6.94 -5 10 C-5.66 9.01 -6.32 8.02 -7 7 C-4.66666667 4.66666667 -2.33333333 2.33333333 0 0 Z " fill="#9DC7B0" transform="translate(251,268)"/>
<path d="M0 0 C1.32 0.33 2.64 0.66 4 1 C3.34 1 2.68 1 2 1 C1.79375 1.556875 1.5875 2.11375 1.375 2.6875 C-0.55000774 5.92501302 -3.03850902 7.68231141 -6 10 C-6 8.68 -6 7.36 -6 6 C-5.34 5.67 -4.68 5.34 -4 5 C-4 4.34 -4 3.68 -4 3 C-3.01 2.67 -2.02 2.34 -1 2 C-0.67 1.34 -0.34 0.68 0 0 Z " fill="#A6CFBA" transform="translate(263,256)"/>
<path d="M0 0 C0.66 0 1.32 0 2 0 C1.67 0.99 1.34 1.98 1 3 C0.67 2.01 0.34 1.02 0 0 Z M-1 3 C-0.01 3.66 0.98 4.32 2 5 C1.34 6.98 0.68 8.96 0 11 C-1.65 11.33 -3.3 11.66 -5 12 C-4.01 10.68 -3.02 9.36 -2 8 C-2.66 6.68 -3.32 5.36 -4 4 C-3.01 3.67 -2.02 3.34 -1 3 Z " fill="#431E71" transform="translate(286,243)"/>
<path d="M0 0 C1 3 1 3 0.14453125 5.0078125 C-0.29503906 5.70648438 -0.73460937 6.40515625 -1.1875 7.125 C-1.61417969 7.82882813 -2.04085937 8.53265625 -2.48046875 9.2578125 C-4.25479631 11.2921315 -5.36997598 11.62830496 -8 12 C-7.23570339 10.55901389 -6.46327445 9.12233946 -5.6875 7.6875 C-5.25824219 6.88699219 -4.82898438 6.08648437 -4.38671875 5.26171875 C-3.09940446 3.16212728 -1.81593292 1.64552279 0 0 Z " fill="#9FCCB3" transform="translate(232,125)"/>
<path d="M0 0 C0.99 0 1.98 0 3 0 C2.25 1.9375 2.25 1.9375 1 4 C-1.125 4.75 -1.125 4.75 -3 5 C-3 5.66 -3 6.32 -3 7 C-3.99 7.33 -4.98 7.66 -6 8 C-6 4 -6 4 -4.5 2.25 C-4.005 1.8375 -3.51 1.425 -3 1 C-2.01 1.33 -1.02 1.66 0 2 C0 1.34 0 0.68 0 0 Z " fill="#634882" transform="translate(243,92)"/>
<path d="M0 0 C0.99 0 1.98 0 3 0 C2 3 2 3 -1.25 4.75 C-4.9065655 5.96885517 -6.45805917 6.35427149 -10 5 C-10.33 4.34 -10.66 3.68 -11 3 C-5.555 2.505 -5.555 2.505 0 2 C0 1.34 0 0.68 0 0 Z " fill="#593B7C" transform="translate(355,419)"/>
<path d="M0 0 C0.99 0.33 1.98 0.66 3 1 C3 1.99 3 2.98 3 4 C4.65 4.33 6.3 4.66 8 5 C8.33 6.32 8.66 7.64 9 9 C4.89041233 7.54955729 1.56741255 5.48889248 -2 3 C-1.34 2.34 -0.68 1.68 0 1 C0 0.67 0 0.34 0 0 Z " fill="#6E558B" transform="translate(310,411)"/>
<path d="M0 0 C0.66 1.32 1.32 2.64 2 4 C1.01 4.495 1.01 4.495 0 5 C-0.66 4.67 -1.32 4.34 -2 4 C-1.67 4.99 -1.34 5.98 -1 7 C-1.99 7.495 -1.99 7.495 -3 8 C-3.33 8.66 -3.66 9.32 -4 10 C-4.99 9.67 -5.98 9.34 -7 9 C-7 9.66 -7 10.32 -7 11 C-7.66 10.67 -8.32 10.34 -9 10 C-7.8758824 8.70756532 -6.75067408 7.41607925 -5.625 6.125 C-4.99851563 5.40570313 -4.37203125 4.68640625 -3.7265625 3.9453125 C-2.52573166 2.5923402 -1.2791655 1.2791655 0 0 Z " fill="#7F649B" transform="translate(184,124)"/>
<path d="M0 0 C-0.61875 0.0825 -1.2375 0.165 -1.875 0.25 C-2.57625 0.4975 -3.2775 0.745 -4 1 C-4.2475 1.66 -4.495 2.32 -4.75 3 C-6 5 -6 5 -7.8984375 5.484375 C-9.92516972 5.7261606 -11.96313109 5.8685891 -14 6 C-6.25702247 -0.27808989 -6.25702247 -0.27808989 0 0 Z " fill="#634883" transform="translate(223,99)"/>
<path d="M0 0 C0.5534764 2.07553648 1 3.84365964 1 6 C-1.64738916 7.4606285 -2.89448334 8 -6 8 C-6 8.66 -6 9.32 -6 10 C-6.66 9.67 -7.32 9.34 -8 9 C-7.67 8.34 -7.34 7.68 -7 7 C-6.34 7 -5.68 7 -5 7 C-4.731875 6.401875 -4.46375 5.80375 -4.1875 5.1875 C-3.01506533 3.02775192 -1.80630718 1.64209744 0 0 Z " fill="#7D6499" transform="translate(199,331)"/>
<path d="M0 0 C0.33 0.66 0.66 1.32 1 2 C0.2884375 2.6496875 0.2884375 2.6496875 -0.4375 3.3125 C-2.23686957 5.02309613 -2.23686957 5.02309613 -3 8 C-4.95597184 9.39712274 -6.95436401 10.73779907 -9 12 C-9.66 11.67 -10.32 11.34 -11 11 C-7.81316569 6.66590534 -4.13621084 3.3810038 0 0 Z " fill="#A0C9B1" transform="translate(247,109)"/>
<path d="M0 0 C-1.26239712 0.86658615 -2.53527501 1.71792059 -3.8125 2.5625 C-4.87404297 3.27599609 -4.87404297 3.27599609 -5.95703125 4.00390625 C-8 5 -8 5 -11 4 C-11.66 3.34 -12.32 2.68 -13 2 C-11.21089097 1.47044766 -9.41860852 0.9516063 -7.625 0.4375 C-6.62726563 0.14746094 -5.62953125 -0.14257812 -4.6015625 -0.44140625 C-2 -1 -2 -1 0 0 Z " fill="#998E9F" transform="translate(276,76)"/>
<path d="M0 0 C7.66742597 5.96583144 7.66742597 5.96583144 9 11 C7.68 10.34 6.36 9.68 5 9 C5 8.01 5 7.02 5 6 C2.03 5.505 2.03 5.505 -1 5 C-0.67 3.35 -0.34 1.7 0 0 Z " fill="#6C548E" transform="translate(354,362)"/>
<path d="M0 0 C0.66 0.66 1.32 1.32 2 2 C1.9765625 5.2578125 1.9765625 5.2578125 1.625 9.125 C1.51414062 10.40632813 1.40328125 11.68765625 1.2890625 13.0078125 C1.19367188 13.99523437 1.09828125 14.98265625 1 16 C-0.9960615 12.67849055 -1.24399211 10.15909894 -1.1875 6.3125 C-1.18105469 5.33925781 -1.17460937 4.36601562 -1.16796875 3.36328125 C-1 1 -1 1 0 0 Z " fill="#3A1963" transform="translate(274,281)"/>
<path d="M0 0 C0.66 0.66 1.32 1.32 2 2 C0.515 4.475 0.515 4.475 -1 7 C-3.97 6.505 -3.97 6.505 -7 6 C-3.375 1.125 -3.375 1.125 0 0 Z " fill="#96C9AD" transform="translate(274,233)"/>
<path d="M0 0 C0.680625 0.680625 1.36125 1.36125 2.0625 2.0625 C4.94633751 4.3889842 4.94633751 4.3889842 8.8125 3.75 C9.864375 3.5025 10.91625 3.255 12 3 C12 3.66 12 4.32 12 5 C12.66 5.33 13.32 5.66 14 6 C10.04 6 6.08 6 2 6 C2 5.34 2 4.68 2 4 C1.01 3.67 0.02 3.34 -1 3 C-0.67 2.01 -0.34 1.02 0 0 Z " fill="#411C6D" transform="translate(324,417)"/>
<path d="M0 0 C3.37462715 0.54723683 5.08235 1.0549 8 3 C8.1875 6.625 8.1875 6.625 8 10 C6.29115995 8.37660195 4.62553283 6.70680947 3 5 C3 4.34 3 3.68 3 3 C2.34 3 1.68 3 1 3 C0.67 2.01 0.34 1.02 0 0 Z " fill="#69508A" transform="translate(259,352)"/>
<path d="M0 0 C1.32 0.66 2.64 1.32 4 2 C4 2.66 4 3.32 4 4 C3.34 4 2.68 4 2 4 C2 4.99 2 5.98 2 7 C-0.97 6.505 -0.97 6.505 -4 6 C-4.33 5.01 -4.66 4.02 -5 3 C-3.68 3 -2.36 3 -1 3 C-0.67 2.01 -0.34 1.02 0 0 Z " fill="#431F6F" transform="translate(163,329)"/>
<path d="M0 0 C3.34998521 1.11666174 3.79340222 1.74694925 5.6875 4.5625 C6.12449219 5.20316406 6.56148437 5.84382813 7.01171875 6.50390625 C7.33785156 6.99761719 7.66398438 7.49132812 8 8 C7.67 8.66 7.34 9.32 7 10 C5.68 9.34 4.36 8.68 3 8 C3 7.01 3 6.02 3 5 C2.01 4.67 1.02 4.34 0 4 C0 2.68 0 1.36 0 0 Z " fill="#6C5589" transform="translate(197,278)"/>
<path d="M0 0 C2.475 0.495 2.475 0.495 5 1 C5 2.32 5 3.64 5 5 C6.32 5.33 7.64 5.66 9 6 C7.02 6.99 7.02 6.99 5 8 C0 2.25 0 2.25 0 0 Z " fill="#A1CDB3" transform="translate(221,265)"/>
<path d="M0 0 C0.99 0 1.98 0 3 0 C1.61811547 3.21043882 0.07578097 5.04936365 -2.625 7.25 C-3.57246094 8.03117187 -3.57246094 8.03117187 -4.5390625 8.828125 C-5.02117187 9.21484375 -5.50328125 9.6015625 -6 10 C-6 8.68 -6 7.36 -6 6 C-5.34 6 -4.68 6 -4 6 C-4 5.34 -4 4.68 -4 4 C-3.01 4 -2.02 4 -1 4 C-0.67 2.68 -0.34 1.36 0 0 Z " fill="#765C92" transform="translate(210,346)"/>
<path d="M0 0 C1.98 1.65 3.96 3.3 6 5 C5.34 6.32 4.68 7.64 4 9 C3.67 7.68 3.34 6.36 3 5 C1.68 5 0.36 5 -1 5 C-0.67 3.35 -0.34 1.7 0 0 Z " fill="#785C96" transform="translate(296,249)"/>
<path d="M0 0 C0.33 0.99 0.66 1.98 1 3 C1.99 3 2.98 3 4 3 C3.3125 5.375 3.3125 5.375 2 8 C-0.625 9.3125 -0.625 9.3125 -3 10 C-2.01 6.7 -1.02 3.4 0 0 Z " fill="#674988" transform="translate(141,186)"/>
<path d="M0 0 C0.66 0 1.32 0 2 0 C2.33 2.97 2.66 5.94 3 9 C2.34 9 1.68 9 1 9 C0.67 10.65 0.34 12.3 0 14 C-0.33 14 -0.66 14 -1 14 C-1.18451025 4.58997722 -1.18451025 4.58997722 0 0 Z " fill="#72558F" transform="translate(131,221)"/>
<path d="M0 0 C1.32 0 2.64 0 4 0 C4.0825 0.5775 4.165 1.155 4.25 1.75 C5.20531013 4.6159304 6.78469173 5.9990764 9 8 C8.67 8.99 8.34 9.98 8 11 C6.66375099 9.35653302 5.33107149 7.71016314 4 6.0625 C3.2575 5.14597656 2.515 4.22945313 1.75 3.28515625 C0 1 0 1 0 0 Z " fill="#8972A2" transform="translate(289,392)"/>
<path d="M0 0 C1.65 0 3.3 0 5 0 C6.125 2.3125 6.125 2.3125 7 5 C6.01 6.485 6.01 6.485 5 8 C0 2.25 0 2.25 0 0 Z " fill="#644888" transform="translate(283,383)"/>
<path d="M0 0 C2.31 0.66 4.62 1.32 7 2 C7 3.32 7 4.64 7 6 C3.20411134 5.45773019 1.52788007 3.79872437 -1 1 C-0.67 0.67 -0.34 0.34 0 0 Z " fill="#5B427C" transform="translate(187,361)"/>
<path d="M0 0 C-1.49097658 3.7952131 -3.75700849 5.61042731 -7 8 C-6.67 5.69 -6.34 3.38 -6 1 C-3.92446352 0.4465236 -2.15634036 0 0 0 Z " fill="#A0C8B3" transform="translate(225,298)"/>
<path d="M0 0 C2 4 2 4 2 6 C-0.64 6.33 -3.28 6.66 -6 7 C-4.02 4.69 -2.04 2.38 0 0 Z " fill="#654A85" transform="translate(276,252)"/>
<path d="M0 0 C0.66 0.66 1.32 1.32 2 2 C-0.64 4.64 -3.28 7.28 -6 10 C-6.33 9.01 -6.66 8.02 -7 7 C-6.34 7 -5.68 7 -5 7 C-4.67 5.35 -4.34 3.7 -4 2 C-2.68 2 -1.36 2 0 2 C0 1.34 0 0.68 0 0 Z " fill="#A4C8B4" transform="translate(247,250)"/>
<path d="M0 0 C1.67588141 2.51382212 2.94030311 4.82947288 4.1875 7.5625 C4.55230469 8.34753906 4.91710937 9.13257813 5.29296875 9.94140625 C5.52628906 10.62074219 5.75960938 11.30007812 6 12 C5.67 12.66 5.34 13.32 5 14 C4.34 14 3.68 14 3 14 C2.67 11.36 2.34 8.72 2 6 C1.34 6 0.68 6 0 6 C0 4.02 0 2.04 0 0 Z " fill="#AFD5BD" transform="translate(255,197)"/>
<path d="M0 0 C0.66 0.33 1.32 0.66 2 1 C1.55005243 2.79379098 1.08975857 4.58498928 0.625 6.375 C0.36976563 7.37273437 0.11453125 8.37046875 -0.1484375 9.3984375 C-1 12 -1 12 -3 14 C-3.125 7.25 -3.125 7.25 -2 5 C-1.34 5 -0.68 5 0 5 C-0.2784375 4.0409375 -0.2784375 4.0409375 -0.5625 3.0625 C-0.706875 2.381875 -0.85125 1.70125 -1 1 C-0.67 0.67 -0.34 0.34 0 0 Z " fill="#7A6399" transform="translate(190,158)"/>
<path d="M0 0 C-1.44459644 3.73187415 -1.44459644 3.73187415 -3.8125 4.875 C-6.62762177 5.0358641 -8.476506 4.19164995 -11 3 C-11 2.67 -11 2.34 -11 2 C-3.375 0 -3.375 0 0 0 Z " fill="#BAD0C4" transform="translate(314,74)"/>
<path d="M0 0 C1.18851562 0.00902344 2.37703125 0.01804687 3.6015625 0.02734375 C4.51679688 0.03894531 5.43203125 0.05054688 6.375 0.0625 C6.375 0.3925 6.375 0.7225 6.375 1.0625 C5.71113281 1.09988281 5.04726563 1.13726562 4.36328125 1.17578125 C-0.69536379 1.5524103 -4.46680819 1.87455295 -8.625 5.0625 C-8.625 3.7425 -8.625 2.4225 -8.625 1.0625 C-5.74084117 -0.37957941 -3.20778472 -0.03144887 0 0 Z " fill="#86729E" transform="translate(331.625,375.9375)"/>
<path d="M0 0 C3.96 0 7.92 0 12 0 C11.67 0.99 11.34 1.98 11 3 C7.37 2.67 3.74 2.34 0 2 C0 1.34 0 0.68 0 0 Z " fill="#3B1A64" transform="translate(328,374)"/>
<path d="M0 0 C2.97 0.495 2.97 0.495 6 1 C6 2.32 6 3.64 6 5 C6.66 5.33 7.32 5.66 8 6 C7.34 6 6.68 6 6 6 C5.67 6.66 5.34 7.32 5 8 C2 4.25 2 4.25 2 2 C1.34 2 0.68 2 0 2 C0 1.34 0 0.68 0 0 Z " fill="#6A4E88" transform="translate(272,368)"/>
<path d="M0 0 C0.99 0.33 1.98 0.66 3 1 C2.65120368 4.25543229 1.97866739 5.01873107 -0.5625 7.25 C-1.7690625 8.11625 -1.7690625 8.11625 -3 9 C-2.67 7.35 -2.34 5.7 -2 4 C-1.34 4 -0.68 4 0 4 C0 2.68 0 1.36 0 0 Z " fill="#766090" transform="translate(176,321)"/>
<path d="M0 0 C0.66 0.99 1.32 1.98 2 3 C0.8553125 3.4021875 0.8553125 3.4021875 -0.3125 3.8125 C-2.87380884 4.94424112 -4.19692938 5.91223401 -6 8 C-6 4.89448334 -5.4606285 3.64738916 -4 1 C-2.68 1.33 -1.36 1.66 0 2 C0 1.34 0 0.68 0 0 Z " fill="#462170" transform="translate(222,311)"/>
<path d="M0 0 C0.625 1.8125 0.625 1.8125 1 4 C-1 7 -1 7 -4.125 7.6875 C-5.07375 7.790625 -6.0225 7.89375 -7 8 C-6.02133662 6.85373678 -5.04205413 5.70800212 -4.0625 4.5625 C-3.51722656 3.92441406 -2.97195312 3.28632813 -2.41015625 2.62890625 C-1.63204305 1.73008851 -0.84063472 0.84063472 0 0 Z " fill="#A3CDB5" transform="translate(219,288)"/>
<path d="M0 0 C2.55803184 3.83704776 4.34505724 7.75712791 3.625 12.4375 C3.41875 12.953125 3.2125 13.46875 3 14 C1.51171875 12.85546875 1.51171875 12.85546875 0 11 C-0.29296875 8.30078125 -0.29296875 8.30078125 -0.1875 5.3125 C-0.16042969 4.31863281 -0.13335937 3.32476562 -0.10546875 2.30078125 C-0.07066406 1.54152344 -0.03585938 0.78226563 0 0 Z " fill="#7A6395" transform="translate(183,239)"/>
<path d="M0 0 C2.97 0.495 2.97 0.495 6 1 C5.625 2.9375 5.625 2.9375 5 5 C4.01 5.495 4.01 5.495 3 6 C2.34 5.01 1.68 4.02 1 3 C0.01 3 -0.98 3 -2 3 C-1.34 2.01 -0.68 1.02 0 0 Z " fill="#3D1C6A" transform="translate(233,91)"/>
<path d="M0 0 C1.45606519 4.52092968 0.27032841 7.51648796 -1 12 C-1.66 11.34 -2.32 10.68 -3 10 C-2.69903201 5.86169011 -2.32101984 3.48152976 0 0 Z " fill="#543674" transform="translate(139,195)"/>
<path d="M0 0 C0.33 0 0.66 0 1 0 C0.33333333 5.33333333 -0.33333333 10.66666667 -1 16 C-1.33 16 -1.66 16 -2 16 C-2 13.36 -2 10.72 -2 8 C-2.66 7.67 -3.32 7.34 -4 7 C-3.34 6.01 -2.68 5.02 -2 4 C-1.34 4 -0.68 4 0 4 C0 2.68 0 1.36 0 0 Z " fill="#69518A" transform="translate(184,178)"/>
<path d="M0 0 C0.66 0.33 1.32 0.66 2 1 C2.125 8.75 2.125 8.75 1 11 C0.34 11 -0.32 11 -1 11 C-0.67 7.37 -0.34 3.74 0 0 Z " fill="#52347A" transform="translate(185,167)"/>
<path d="M0 0 C0.66 0 1.32 0 2 0 C0.92598892 2.91517292 0.22189824 4.77810176 -2 7 C-4.625 7.125 -4.625 7.125 -7 7 C-4.66666667 4.66666667 -2.33333333 2.33333333 0 0 Z " fill="#735993" transform="translate(192,117)"/>
<path d="M0 0 C1.32 0.33 2.64 0.66 4 1 C3.34 1 2.68 1 2 1 C2 1.66 2 2.32 2 3 C1.34 3 0.68 3 0 3 C0 3.66 0 4.32 0 5 C-0.66 5 -1.32 5 -2 5 C-2.33 5.99 -2.66 6.98 -3 8 C-3.66 7.67 -4.32 7.34 -5 7 C-4.34 5.68 -3.68 4.36 -3 3 C-2.34 3 -1.68 3 -1 3 C-0.67 2.01 -0.34 1.02 0 0 Z " fill="#644D87" transform="translate(224,108)"/>
<path d="M0 0 C0.66 0.33 1.32 0.66 2 1 C0.60667426 4.36720387 -0.9789286 5.9859524 -4 8 C-4.25 5.6875 -4.25 5.6875 -4 3 C-2 1.1875 -2 1.1875 0 0 Z " fill="#94C2A6" transform="translate(286,91)"/>
<path d="M0 0 C2.25245881 2.68841859 3.88213958 4.64641875 5 8 C2 8 2 8 -1 6 C-1.25 3.4375 -1.25 3.4375 -1 1 C-0.67 0.67 -0.34 0.34 0 0 Z " fill="#644A84" transform="translate(180,351)"/>
<path d="M0 0 C2.71224618 1.61268692 5.37352812 3.24901874 8 5 C7.67 5.66 7.34 6.32 7 7 C3.64641875 5.88213958 1.68841859 4.25245881 -1 2 C-0.67 1.34 -0.34 0.68 0 0 Z " fill="#745A95" transform="translate(341,351)"/>
<path d="M0 0 C0.33 0.99 0.66 1.98 1 3 C1.99 3.33 2.98 3.66 4 4 C4 4.99 4 5.98 4 7 C5.32 7.33 6.64 7.66 8 8 C7.01 8.495 7.01 8.495 6 9 C5.67 9.66 5.34 10.32 5 11 C3.02 8.03 1.04 5.06 -1 2 C-0.67 1.34 -0.34 0.68 0 0 Z " fill="#796095" transform="translate(153,324)"/>
<path d="M0 0 C2.475 0.99 2.475 0.99 5 2 C4.625 4.4375 4.625 4.4375 4 7 C3.01 7.495 3.01 7.495 2 8 C0.74335022 5.09399739 0 3.20395416 0 0 Z " fill="#A1CAB2" transform="translate(266,223)"/>
<path d="M0 0 C2.32947183 2.11770166 3.88750845 4.03335588 5 7 C4.67 7.99 4.34 8.98 4 10 C4 9.34 4 8.68 4 8 C2.68 7.67 1.36 7.34 0 7 C0 4.69 0 2.38 0 0 Z " fill="#73588F" transform="translate(364,375)"/>
<path d="M0 0 C0.75 1.625 0.75 1.625 1 4 C-0.8125 7.25 -0.8125 7.25 -3 10 C-3.66 10 -4.32 10 -5 10 C-4.34 8.02 -3.68 6.04 -3 4 C-2.34 4 -1.68 4 -1 4 C-0.67 2.68 -0.34 1.36 0 0 Z " fill="#3F1F65" transform="translate(151,170)"/>
<path d="M0 0 C0.66 1.32 1.32 2.64 2 4 C-0.05233685 6.2477975 -1.00667261 7.0022242 -4 8 C-2.87548273 5.0280615 -1.77706209 2.66559313 0 0 Z " fill="#745893" transform="translate(157,157)"/>
<path d="M0 0 C0.99 0.33 1.98 0.66 3 1 C2.67 1.99 2.34 2.98 2 4 C-1.17242648 5.31035007 -3.55881664 6 -7 6 C-5.90716423 4.96704564 -4.80029421 3.94892165 -3.6875 2.9375 C-3.07261719 2.36902344 -2.45773438 1.80054687 -1.82421875 1.21484375 C-0.92123047 0.61349609 -0.92123047 0.61349609 0 0 Z " fill="#ACD4BB" transform="translate(258,99)"/>
<path d="M0 0 C0.66 0 1.32 0 2 0 C0.88333826 3.34998521 0.25305075 3.79340222 -2.5625 5.6875 C-3.20316406 6.12449219 -3.84382813 6.56148438 -4.50390625 7.01171875 C-4.99761719 7.33785156 -5.49132812 7.66398437 -6 8 C-6.33 6.68 -6.66 5.36 -7 4 C-4.69 3.34 -2.38 2.68 0 2 C0 1.34 0 0.68 0 0 Z " fill="#A6CEB8" transform="translate(294,86)"/>
<path d="M0 0 C-0.8125 1.9375 -0.8125 1.9375 -2 4 C-2.99 4.33 -3.98 4.66 -5 5 C-5.33 4.34 -5.66 3.68 -6 3 C-6.99 2.34 -7.98 1.68 -9 1 C-5.92677456 0.08941469 -3.19902639 -0.08886184 0 0 Z " fill="#715A87" transform="translate(266,79)"/>
<path d="M0 0 C2 2 2 2 2.125 4.625 C2.08375 5.40875 2.0425 6.1925 2 7 C0.68 7.33 -0.64 7.66 -2 8 C-2 6.02 -2 4.04 -2 2 C-1.34 2 -0.68 2 0 2 C0 1.34 0 0.68 0 0 Z " fill="#431E73" transform="translate(363,375)"/>
<path d="M0 0 C1.32 0.66 2.64 1.32 4 2 C2.35 3.98 0.7 5.96 -1 8 C-1.66 7.01 -2.32 6.02 -3 5 C-2.01 3.35 -1.02 1.7 0 0 Z " fill="#A5CDB3" transform="translate(182,338)"/>
<path d="M0 0 C1.32 0.99 2.64 1.98 4 3 C3.34 3 2.68 3 2 3 C2 3.66 2 4.32 2 5 C1.34 5 0.68 5 0 5 C0 5.66 0 6.32 0 7 C-0.66 7 -1.32 7 -2 7 C-1.125 1.125 -1.125 1.125 0 0 Z " fill="#A6CEB8" transform="translate(237,281)"/>
<path d="M0 0 C-1.29299694 2.88437779 -2.65941363 4.87219421 -5 7 C-5.33 5.02 -5.66 3.04 -6 1 C-3 0 -3 0 0 0 Z " fill="#735A90" transform="translate(209,129)"/>
<path d="M0 0 C0.66 0.33 1.32 0.66 2 1 C1.01 2.485 1.01 2.485 0 4 C-0.99 4 -1.98 4 -3 4 C-3.66 5.32 -4.32 6.64 -5 8 C-5.99 7.34 -6.98 6.68 -8 6 C-5.36 4.02 -2.72 2.04 0 0 Z " fill="#A1CBB4" transform="translate(268,92)"/>
<path d="M0 0 C-1.0625 1.5 -1.0625 1.5 -3 3 C-6.6875 3.1875 -6.6875 3.1875 -10 3 C-6.84439813 -0.15560187 -4.30999015 -1.43666338 0 0 Z " fill="#80699A" transform="translate(254,83)"/>
<path d="M0 0 C1.65 0.33 3.3 0.66 5 1 C5 1.66 5 2.32 5 3 C3.02 3.66 1.04 4.32 -1 5 C-0.67 3.35 -0.34 1.7 0 0 Z " fill="#8EC2A4" transform="translate(303,77)"/>
<path d="M0 0 C0.66 0.33 1.32 0.66 2 1 C1.34 2.32 0.68 3.64 0 5 C-2.97 4.505 -2.97 4.505 -6 4 C-4.02610343 2.02610343 -2.56269497 1.04109483 0 0 Z " fill="#725A8E" transform="translate(341,399)"/>
<path d="M0 0 C1.485 0.99 1.485 0.99 3 2 C3 2.66 3 3.32 3 4 C3.66 4 4.32 4 5 4 C4.67 4.66 4.34 5.32 4 6 C2.68 6 1.36 6 0 6 C0 4.02 0 2.04 0 0 Z " fill="#6C5586" transform="translate(321,395)"/>
<path d="M0 0 C0.33 0 0.66 0 1 0 C1 4.29 1 8.58 1 13 C-0.32 12.67 -1.64 12.34 -3 12 C-2.690625 11.505 -2.38125 11.01 -2.0625 10.5 C-0.58355618 7.02013219 -0.37597149 3.75971491 0 0 Z " fill="#81699C" transform="translate(346,385)"/>
<path d="M0 0 C2.625 0.9375 2.625 0.9375 5 2 C5 2.66 5 3.32 5 4 C5.99 4.33 6.98 4.66 8 5 C3.78087253 4.5205537 1.20336822 3.83374881 -2 1 C-1.34 0.67 -0.68 0.34 0 0 Z " fill="#82639A" transform="translate(321,419)"/>
<path d="M0 0 C2.49361571 1.20381448 4.68143083 2.45428722 7 4 C6.01 4.99 5.02 5.98 4 7 C0 2.25 0 2.25 0 0 Z " fill="#755C90" transform="translate(278,376)"/>
<path d="M0 0 C2.64 0.66 5.28 1.32 8 2 C8 2.99 8 3.98 8 5 C5.03 4.01 2.06 3.02 -1 2 C-0.67 1.34 -0.34 0.68 0 0 Z " fill="#765891" transform="translate(239,337)"/>
<path d="M0 0 C2.64 0 5.28 0 8 0 C4.77484237 1.73662334 1.48670834 2.8905928 -2 4 C-1.34 2.68 -0.68 1.36 0 0 Z " fill="#705B89" transform="translate(221,338)"/>
<path d="M0 0 C0.66 0.33 1.32 0.66 2 1 C1.60196439 3.88575819 1.20990931 4.82189513 -1.0625 6.75 C-1.701875 7.1625 -2.34125 7.575 -3 8 C-3.33 6.68 -3.66 5.36 -4 4 C-2.68 4 -1.36 4 0 4 C0 2.68 0 1.36 0 0 Z " fill="#A5CEB8" transform="translate(202,318)"/>
<path d="M0 0 C0.99 0 1.98 0 3 0 C2.34 2.97 1.68 5.94 1 9 C0.67 9 0.34 9 0 9 C-0.87890625 2.84765625 -0.87890625 2.84765625 -1 1 C-0.67 0.67 -0.34 0.34 0 0 Z " fill="#725791" transform="translate(276,279)"/>
<path d="M0 0 C3 1 3 1 4.25 2.8125 C5.11637742 5.33943414 4.88492145 6.52221994 4 9 C0 2.25 0 2.25 0 0 Z " fill="#A3CBB2" transform="translate(216,256)"/>
<path d="M0 0 C0.33 0 0.66 0 1 0 C1.625 3.375 1.625 3.375 2 7 C1.34 7.66 0.68 8.32 0 9 C-1.3950848 6.70221327 -2.07438619 5.5207033 -1.6875 2.8125 C-1 1 -1 1 0 0 Z " fill="#9FCAB2" transform="translate(213,243)"/>
<path d="M0 0 C0.33 0 0.66 0 1 0 C1 2.31 1 4.62 1 7 C0.34 7 -0.32 7 -1 7 C-1 6.34 -1 5.68 -1 5 C-1.99 4.67 -2.98 4.34 -4 4 C-4 3.34 -4 2.68 -4 2 C-3.01 2 -2.02 2 -1 2 C-0.67 1.34 -0.34 0.68 0 0 Z " fill="#401D6D" transform="translate(181,187)"/>
<path d="M0 0 C0.66 0.33 1.32 0.66 2 1 C-1.32307692 4.93846154 -1.32307692 4.93846154 -4.75 5.25 C-5.4925 5.1675 -6.235 5.085 -7 5 C-4.88437775 2.67281553 -2.94982021 1.14186589 0 0 Z " fill="#A8CFBD" transform="translate(277,87)"/>
<path d="M0 0 C0 3.10551666 -0.5393715 4.35261084 -2 7 C-3.32 6.67 -4.64 6.34 -6 6 C-4.02 4.02 -2.04 2.04 0 0 Z " fill="#7C6294" transform="translate(216,314)"/>
<path d="M0 0 C0.99 0.99 1.98 1.98 3 3 C2.72963853 5.97397616 2.14553974 6.85446026 0 9 C0 6.03 0 3.06 0 0 Z " fill="#705C8B" transform="translate(205,288)"/>
<path d="M0 0 C0.33 0 0.66 0 1 0 C1 2.64 1 5.28 1 8 C0.01 8.33 -0.98 8.66 -2 9 C-1.125 2.25 -1.125 2.25 0 0 Z " fill="#AACFB9" transform="translate(211,161)"/>
<path d="M0 0 C0.99 0 1.98 0 3 0 C1.92598892 2.91517292 1.22189824 4.77810176 -1 7 C-1.33 5.35 -1.66 3.7 -2 2 C-1.34 2 -0.68 2 0 2 C0 1.34 0 0.68 0 0 Z " fill="#533777" transform="translate(200,137)"/>
<path d="M0 0 C1.32 0.99 2.64 1.98 4 3 C3.67 4.32 3.34 5.64 3 7 C3 6.34 3 5.68 3 5 C2.01 5 1.02 5 0 5 C-0.33 4.01 -0.66 3.02 -1 2 C-0.67 1.34 -0.34 0.68 0 0 Z " fill="#46256B" transform="translate(258,347)"/>
<path d="M0 0 C4.875 4.75 4.875 4.75 6 7 C4.35 6.67 2.7 6.34 1 6 C0.67 4.02 0.34 2.04 0 0 Z " fill="#705A90" transform="translate(280,307)"/>
<path d="M0 0 C2.97 0.495 2.97 0.495 6 1 C5.01 1.33 4.02 1.66 3 2 C3 2.66 3 3.32 3 4 C1.68 4 0.36 4 -1 4 C-0.67 2.68 -0.34 1.36 0 0 Z " fill="#3F1D6D" transform="translate(248,282)"/>
<path d="M0 0 C0.66 1.32 1.32 2.64 2 4 C1.01 4.495 1.01 4.495 0 5 C-0.33 5.99 -0.66 6.98 -1 8 C-1.66 6.35 -2.32 4.7 -3 3 C-2.01 2.01 -1.02 1.02 0 0 Z " fill="#3D1869" transform="translate(190,155)"/>
<path d="" fill="#FFFFFF" transform="translate(0,0)"/>
<path d="" fill="#FFFFFF" transform="translate(0,0)"/>
<path d="" fill="#FFFFFF" transform="translate(0,0)"/>
<path d="" fill="#FFFFFF" transform="translate(0,0)"/>
<path d="" fill="#FFFFFF" transform="translate(0,0)"/>
<path d="" fill="#FFFFFF" transform="translate(0,0)"/>
<path d="" fill="#FFFFFF" transform="translate(0,0)"/>
<path d="" fill="#FFFFFF" transform="translate(0,0)"/>
<path d="" fill="#FFFFFF" transform="translate(0,0)"/>
<path d="" fill="#FFFFFF" transform="translate(0,0)"/>
<path d="" fill="#FFFFFF" transform="translate(0,0)"/>
<path d="" fill="#FFFFFF" transform="translate(0,0)"/>
<path d="" fill="#FFFFFF" transform="translate(0,0)"/>
<path d="" fill="#FFFFFF" transform="translate(0,0)"/>
<path d="" fill="#FFFFFF" transform="translate(0,0)"/>
<path d="" fill="#FFFFFF" transform="translate(0,0)"/>
<path d="" fill="#FFFFFF" transform="translate(0,0)"/>
<path d="" fill="#FFFFFF" transform="translate(0,0)"/>
<path d="" fill="#FFFFFF" transform="translate(0,0)"/>
<path d="" fill="#FFFFFF" transform="translate(0,0)"/>
<path d="" fill="#FFFFFF" transform="translate(0,0)"/>
<path d="" fill="#FFFFFF" transform="translate(0,0)"/>
<path d="" fill="#FFFFFF" transform="translate(0,0)"/>
<path d="" fill="#FFFFFF" transform="translate(0,0)"/>
<path d="" fill="#FFFFFF" transform="translate(0,0)"/>
<path d="" fill="#FFFFFF" transform="translate(0,0)"/>
<path d="" fill="#FFFFFF" transform="translate(0,0)"/>
<path d="" fill="#FFFFFF" transform="translate(0,0)"/>
<path d="" fill="#FFFFFF" transform="translate(0,0)"/>
<path d="" fill="#FFFFFF" transform="translate(0,0)"/>
<path d="" fill="#FFFFFF" transform="translate(0,0)"/>
<path d="" fill="#FFFFFF" transform="translate(0,0)"/>
<path d="" fill="#FFFFFF" transform="translate(0,0)"/>
<path d="" fill="#FFFFFF" transform="translate(0,0)"/>
<path d="" fill="#FFFFFF" transform="translate(0,0)"/>
<path d="" fill="#FFFFFF" transform="translate(0,0)"/>
<path d="" fill="#FFFFFF" transform="translate(0,0)"/>
<path d="" fill="#FFFFFF" transform="translate(0,0)"/>
<path d="" fill="#FFFFFF" transform="translate(0,0)"/>
<path d="" fill="#FFFFFF" transform="translate(0,0)"/>
<path d="" fill="#FFFFFF" transform="translate(0,0)"/>
<path d="" fill="#FFFFFF" transform="translate(0,0)"/>
<path d="" fill="#FFFFFF" transform="translate(0,0)"/>
<path d="" fill="#FFFFFF" transform="translate(0,0)"/>
<path d="" fill="#FFFFFF" transform="translate(0,0)"/>
<path d="" fill="#FFFFFF" transform="translate(0,0)"/>
<path d="" fill="#FFFFFF" transform="translate(0,0)"/>
<path d="" fill="#FFFFFF" transform="translate(0,0)"/>
<path d="" fill="#FFFFFF" transform="translate(0,0)"/>
<path d="" fill="#FFFFFF" transform="translate(0,0)"/>
<path d="" fill="#FFFFFF" transform="translate(0,0)"/>
<path d="" fill="#FFFFFF" transform="translate(0,0)"/>
<path d="" fill="#FFFFFF" transform="translate(0,0)"/>
<path d="" fill="#FFFFFF" transform="translate(0,0)"/>
<path d="" fill="#FFFFFF" transform="translate(0,0)"/>
<path d="" fill="#FFFFFF" transform="translate(0,0)"/>
<path d="" fill="#FFFFFF" transform="translate(0,0)"/>
<path d="" fill="#FFFFFF" transform="translate(0,0)"/>
<path d="" fill="#FFFFFF" transform="translate(0,0)"/>
<path d="" fill="#FFFFFF" transform="translate(0,0)"/>
<path d="" fill="#FFFFFF" transform="translate(0,0)"/>
<path d="" fill="#FFFFFF" transform="translate(0,0)"/>
<path d="" fill="#FFFFFF" transform="translate(0,0)"/>
<path d="" fill="#FFFFFF" transform="translate(0,0)"/>
<path d="" fill="#FFFFFF" transform="translate(0,0)"/>
<path d="" fill="#FFFFFF" transform="translate(0,0)"/>
<path d="" fill="#FFFFFF" transform="translate(0,0)"/>
<path d="" fill="#FFFFFF" transform="translate(0,0)"/>
<path d="" fill="#FFFFFF" transform="translate(0,0)"/>
<path d="" fill="#FFFFFF" transform="translate(0,0)"/>
<path d="" fill="#FFFFFF" transform="translate(0,0)"/>
<path d="" fill="#FFFFFF" transform="translate(0,0)"/>
<path d="" fill="#FFFFFF" transform="translate(0,0)"/>
<path d="" fill="#FFFFFF" transform="translate(0,0)"/>
<path d="" fill="#FFFFFF" transform="translate(0,0)"/>
<path d="" fill="#FFFFFF" transform="translate(0,0)"/>
<path d="" fill="#FFFFFF" transform="translate(0,0)"/>
<path d="" fill="#FFFFFF" transform="translate(0,0)"/>
<path d="" fill="#FFFFFF" transform="translate(0,0)"/>
<path d="" fill="#FFFFFF" transform="translate(0,0)"/>
<path d="" fill="#FFFFFF" transform="translate(0,0)"/>
<path d="" fill="#FFFFFF" transform="translate(0,0)"/>
<path d="" fill="#FFFFFF" transform="translate(0,0)"/>
<path d="" fill="#FFFFFF" transform="translate(0,0)"/>
<path d="" fill="#FFFFFF" transform="translate(0,0)"/>
</svg>
